<svg xmlns="http://www.w3.org/2000/svg" width="256" height="256"><path fill-opacity=".016" d="M0 128.004v128.004l128.25-.254 128.25-.254.254-127.75L257.008 0H0v128.004m.485.496c0 70.4.119 99.053.265 63.672.146-35.38.146-92.98 0-128C.604 29.153.485 58.1.485 128.5" fill="#121212" fill-rule="evenodd"/><path fill-opacity=".207" d="M170 9.686c-7.627 1.546-56.311 13.998-73.197 18.721-21.482 6.01-29.214 9.348-35.24 15.218-8.025 7.816-47.543 63.305-54.287 76.227-3.075 5.89-3.426 7.338-3.088 12.698.54 8.562 3.159 13.346 26.218 47.882 33.532 50.223 41.72 61.061 48.893 64.721 7.555 3.854 16.483 3.619 66.201-1.745 44.906-4.844 56.657-7.094 63.338-12.129 6.473-4.877 13.024-17.861 31.171-61.779 13.79-33.372 14.832-38.097 10.95-49.622-3.79-11.249-42.296-86.128-50.812-98.809-2.006-2.987-5.376-6.812-7.489-8.5-3.526-2.816-4.514-3.082-12-3.229-4.487-.088-9.283.068-10.658.346" fill="#121212" fill-rule="evenodd"/><path fill-opacity=".211" d="M170 13.934c-31.278 6.946-92.135 23.548-98.661 26.915C64.979 44.131 57.878 52.764 35.841 84 13.81 115.228 7.03 126.562 7.01 132.196c-.006 1.483 1.702 6.004 3.793 10.046 6.192 11.965 52.336 80.476 63.028 93.579 1.939 2.376 5.353 5.253 7.586 6.392 3.684 1.879 5.174 2.014 16.072 1.448 23.249-1.208 87.153-8.456 99.899-11.33 10.285-2.32 13.348-5.863 22.332-25.831 9.143-20.319 24.283-56.917 27.24-65.845 4.154-12.544 3.71-14.1-14.226-49.925-16.751-33.457-34.306-66.169-38.371-71.498-5.422-7.109-10.872-8.294-24.363-5.298m-63.029 30.79c-3.559 3.698-6.165 6.504-5.791 6.237C106.415 47.211 115.376 38 113.789 38c-.191 0-3.259 3.026-6.818 6.724M94 45.5c-1.979.762-2.714 1.381-1.691 1.424 2.428.102 1.462 1.42-4.486 6.122C85.072 55.221 83.148 57 83.549 57c.827 0 14.21-10.801 15.032-12.132.708-1.144-.347-.999-4.581.632m-9.5 3.445c-2.2 1.041-3.55 1.896-3 1.9 1.364.009 9.255-3.684 8-3.745-.55-.026-2.8.804-5 1.845M64.872 52.75c-1.243 1.586-1.208 1.621.378.378C66.916 51.821 67.445 51 66.622 51c-.207 0-.995.788-1.75 1.75m38 1.912c-.754.914-2.722 2.488-4.372 3.496-1.65 1.009-2.578 1.836-2.062 1.838 1.424.006 7.464-4.325 8.015-5.746.668-1.725.051-1.564-1.581.412m-31.431.893c-1.864 1.494-1.852 1.512.309.465 1.237-.6 2.25-1.3 2.25-1.555 0-.765-.519-.544-2.559 1.09m-8.792.203c-.888 1.438.28 4.242 1.767 4.242.661 0 2.075-.676 3.143-1.502 1.7-1.316 1.718-1.425.143-.875-1.128.394-2.282-.034-3.097-1.149-.824-1.126-1.54-1.388-1.956-.716M63 56.941c0 .518.445 1.216.989 1.552.566.35.734-.051.393-.941C63.717 55.82 63 55.503 63 56.941m26 5.068c-1.925 1.056-7.325 5.578-12 10.048-4.675 4.469-6.7 6.772-4.5 5.117 2.2-1.655 6.025-5.124 8.5-7.709 2.475-2.585 6.75-5.767 9.5-7.073 2.75-1.305 4.325-2.357 3.5-2.338-.825.019-3.075.899-5 1.955m47.359 1.572c-1.857 1.969-3.121 3.994-2.809 4.5.312.505.103.919-.465.919-1.196 0-4.527 5.982-3.361 6.035.856.04-3.842 2.873-4.857 2.93-1.345.075-1.443-4.637-.123-5.871.765-.714 1.141-1.951.835-2.749-.31-.809-.119-1.179.432-.838.544.336.989-.091.989-.948S126.56 66 126.023 66c-2.158 0-14.122 5.027-23.541 9.891C96.964 78.74 90.04 81.488 87 82.035c-3.025.545-10.536 3.453-16.691 6.463-8.49 4.152-11.989 6.466-14.496 9.585-1.817 2.261-4.656 4.706-6.309 5.433-2.185.961-2.486 1.343-1.103 1.402 1.061.046 4.367-2.423 7.477-5.583 4.192-4.259 8.063-6.861 15.599-10.486 5.513-2.651 10.979-4.827 12.147-4.835 3.441-.023 10.098-2.636 22.876-8.978 16.631-8.255 18.576-8.293 15.37-.3-1.039 2.591-1.048 3.486-.046 4.488 1.002 1.002 1.991.844 4.964-.795 2.041-1.126 3.599-2.583 3.462-3.238-.138-.655.188-1.191.724-1.191s1.723-1.463 2.637-3.25c.915-1.787 2.989-4.937 4.61-7 3.744-4.764 2.572-4.87-1.862-.169m-75.286 4.054c-1.14 1.449-2.141 3.699-2.223 5a279.166 279.166 0 01-.25 3.615c-.055.688-.55 1.581-1.1 1.985-.55.404-.114.741.969.75 1.53.012.68 1.317-3.813 5.857-4.257 4.303-5.891 6.74-6.199 9.25-.311 2.529-.198 2.892.438 1.408l.856-2 .485 2c.266 1.1.289.467.05-1.407-.406-3.173.24-4.096 9.389-13.431 5.404-5.512 8.122-8.592 6.04-6.842-4.142 3.48-7.468 4.348-5.895 1.538.505-.903.713-2.591.462-3.75-.383-1.773-.268-1.87.726-.608.999 1.269 1.086 1.209.562-.395-.366-1.122.066-2.65 1.061-3.75.923-1.02 1.417-1.855 1.097-1.855-.321 0-1.516 1.186-2.655 2.635m61.006 8.948c.048 1.165.285 1.402.604.605.289-.722.253-1.585-.079-1.917-.332-.332-.568.258-.525 1.312m62.792 12.667c-2.98 5.839-8.872 23.576-8.867 26.696.005 3.407 3.336 8.71 6.002 9.556 3.403 1.08 3.48-.199.117-1.939-3.489-1.803-5.123-4.324-5.123-7.9 0-2.84 6.242-21.256 9.109-26.878 1.063-2.082 1.707-3.785 1.432-3.785-.275 0-1.477 1.912-2.67 4.25m30.622 7.5c-.329 2.063-1.872 9.375-3.428 16.25-4.246 18.762-5.289 24.109-4.796 24.602.246.246 1.007-2.376 1.691-5.827.684-3.451 2.498-11.675 4.031-18.275 2.991-12.877 4.317-20.5 3.566-20.5-.256 0-.735 1.688-1.064 3.75m-27.302 4.162c-.66 1.877-.973 3.639-.696 3.917.278.277.505-.021.505-.662 0-1.823 1.801-1.368 2.311.583.376 1.438.46 1.394.473-.25.009-1.1-.301-3.125-.688-4.5-.696-2.465-.722-2.452-1.905.912m-140.608-.269c-.918 2.394-.202 2.578 1.213.312.672-1.075.815-1.955.319-1.955-.495 0-1.185.739-1.532 1.643m172.436 5.607c-.01.963.768 2.607 1.731 3.655.963 1.047 2.582 3.103 3.598 4.568 1.017 1.465 2.129 2.384 2.471 2.041.343-.343.137-.936-.458-1.318-.594-.383-2.485-2.946-4.202-5.696-1.769-2.834-3.129-4.242-3.14-3.25m-28.94 2.333c.048 1.165.285 1.402.604.605.289-.722.253-1.585-.079-1.917-.332-.332-.568.258-.525 1.312M185.158 111c0 1.375.227 1.938.504 1.25.278-.687.278-1.812 0-2.5-.277-.687-.504-.125-.504 1.25m34.037 1.5c.02 1.65.244 2.204.498 1.231.254-.973.237-2.323-.037-3-.274-.677-.481.119-.461 1.769m-27.035 1.568c-.088 1.963-.863 5.936-1.722 8.829-.859 2.893-1.285 6.521-.947 8.062.633 2.883 9.368 13.041 11.214 13.041.569 0 1.59 1.983 2.269 4.406 1.565 5.592 4.585 10.594 6.396 10.594.77 0 2.147 1.139 3.059 2.532 1.614 2.464 3.651 2.556 3.492.159-.051-.766-.271-.71-.616.157-.374.94-1.073.531-2.307-1.351-.974-1.485-2.834-3.225-4.134-3.867-1.739-.859-3.206-3.541-5.549-10.149-1.752-4.939-3.214-8.194-3.25-7.231-.091 2.444-.539 2.258-5-2.071-4.963-4.816-5.617-7.473-3.571-14.51.9-3.095 1.454-7.099 1.231-8.898l-.405-3.271-.16 3.568m9.919-1.485c.048 1.165.285 1.402.604.605.289-.722.253-1.585-.079-1.917-.332-.332-.568.258-.525 1.312m-.827 5.917c.011 2.2.216 2.982.455 1.738.239-1.244.23-3.044-.02-4s-.446.062-.435 2.262m-17.094.5c0 1.375.227 1.938.504 1.25.278-.687.278-1.812 0-2.5-.277-.687-.504-.125-.504 1.25m33.921 9.583c.048 1.165.285 1.402.604.605.289-.722.253-1.585-.079-1.917-.332-.332-.568.258-.525 1.312m-1.917 4.96c-.639 1.403-1.144 3.092-1.123 3.754.022.662.704-.328 1.515-2.198 1.709-3.938 1.348-5.373-.392-1.556m-17.083 2.04c.048 1.165.285 1.402.604.605.289-.722.253-1.585-.079-1.917-.332-.332-.568.258-.525 1.312M214.158 142c0 1.375.227 1.938.504 1.25.278-.687.278-1.812 0-2.5-.277-.687-.504-.125-.504 1.25m-14.658 0c-.34.55-.141 1 .441 1s1.059-.45 1.059-1-.198-1-.441-1-.719.45-1.059 1m13.732 8c0 1.925.206 2.713.457 1.75.252-.963.252-2.537 0-3.5-.251-.963-.457-.175-.457 1.75" fill="#121212" fill-rule="evenodd"/><path fill-opacity=".764" d="M170 14.933c-34.888 7.751-93.455 23.972-99.64 27.596-2.379 1.395-6.83 5.674-9.89 9.509-7.164 8.978-29.481 40.071-39.673 55.273-14.192 21.17-15.063 24.178-9.857 34.074 3.732 7.096 28.298 44.367 45.554 69.115 22.568 32.366 22.715 32.501 35.724 32.499 12.942-.001 80.908-7.153 100.622-10.587 10.226-1.782 13.372-3.341 17.084-8.466 3.241-4.474 16.079-33.081 27.35-60.946 10.175-25.154 11.037-28.029 10.524-35.123-.381-5.259-2.244-9.549-16.571-38.151-20.436-40.798-34.542-66.696-39.165-71.906-3.165-3.567-4.227-4.114-8.587-4.423-2.736-.194-8.8.498-13.475 1.536m-66.242 21.114c-12.108 3.487-31.573 11.058-36.045 14.02-5.362 3.551-7.188 6.923-5.191 9.583 1.341 1.786 1.519 1.771 5.183-.446 5.847-3.537 19.448-9.968 22.795-10.778 5.719-1.384-6.145 7.211-13.916 10.082-10.238 3.782-15.465 7.106-17.004 10.814-2.647 6.378-3.423 9.657-2.431 10.27.534.33-1.543 3.237-4.616 6.459-4.92 5.158-5.568 6.312-5.42 9.654.092 2.087-.177 5.258-.598 7.045-1.278 5.428 2.517 4.233 10.565-3.325 7.782-7.309 17.401-12.333 28.568-14.923 3.64-.844 11.62-4.062 17.734-7.15 10.839-5.477 18.591-8.712 19.263-8.04.184.183-.413 2.233-1.325 4.556-1.488 3.787-1.501 4.379-.131 5.75 2.542 2.541 8.182-.473 11.553-6.175 1.517-2.566 4.221-6.614 6.008-8.994 3.965-5.282 4.08-7.183.515-8.538-2.318-.882-5.764-.039-22.633 5.538-10.944 3.618-24.348 8.372-29.786 10.565C81.408 74.206 76.645 76 76.261 76c-.384 0 1.96-2.687 5.21-5.971 3.887-3.927 7.431-6.489 10.359-7.487 7.201-2.453 13.083-6.349 13.78-9.125.347-1.381.363-2.777.037-3.103-.326-.326 1.668-3.067 4.432-6.091 3.333-3.647 4.923-6.208 4.723-7.61-.401-2.805-2.835-2.93-11.044-.566M93 41.383c-6.875 2.379-15.013 5.295-18.085 6.481-6.257 2.416-10.914 6.537-9.259 8.192.707.707 3.356-.221 8.437-2.955 8.49-4.567 23.517-10.323 25.804-9.882.96.185-1.702 2.974-7.029 7.363-6.992 5.763-10.245 7.669-17.631 10.333-10.09 3.638-12.706 5.828-13.542 11.337-.528 3.473-.426 3.674 1.368 2.714C64.128 74.396 65 73.592 65 73.18c0-.412 1.35-1.546 3-2.521 1.65-.975 3-1.401 3-.947 0 .454-4.53 5.317-10.066 10.807-9.517 9.437-10.038 10.166-9.54 13.372.289 1.864.057 4.265-.515 5.335-2.061 3.852.18 2.989 4.252-1.637 3.227-3.666 6.708-5.957 15.591-10.26 6.291-3.048 13.314-5.761 15.608-6.031 2.293-.269 10.02-3.326 17.17-6.794 13.535-6.563 23.173-10.164 24.27-9.068.352.352.052 2.086-.666 3.852-3.475 8.543-1.593 10.19 2.793 2.445 1.318-2.328 3.712-5.913 5.32-7.965 1.608-2.053 2.64-4.191 2.294-4.75-.888-1.436-4.866-1.263-8.727.379-1.806.769-11.384 4.114-21.284 7.435-9.9 3.321-21.857 7.614-26.57 9.539-15.385 6.284-15.692 5.954-4.47-4.807 8.304-7.961 11.071-9.974 16.635-12.1 8.063-3.081 10.733-5.493 8.526-7.7-1.297-1.298-.767-2.172 4.453-7.337 3.259-3.226 5.926-6.216 5.926-6.646 0-1.826-7.328-.437-19 3.602m93.247 43.867c-2.129 2.669-4.402 8.114-7.87 18.857-3.226 9.994-3.487 11.582-2.467 14.985 1.238 4.133 6.198 8.464 8.625 7.533 1.068-.41 1.47-2.264 1.484-6.844.021-6.836 2.351-17.258 3.305-14.781 2.295 5.963 2.614 9.887 1.185 14.599-1.757 5.79-1.934 11.739-.432 14.545 1.494 2.791 8.464 9.856 9.724 9.856.57 0 2.025 2.971 3.233 6.602 1.753 5.268 2.862 6.994 5.492 8.546 1.813 1.069 3.546 2.598 3.853 3.398.755 1.966 3.258 1.843 4.041-.199.349-.909.113-3.232-.524-5.164-1.569-4.752-.588-17.945 1.656-22.279 1.156-2.233 1.987-6.923 2.417-13.632.36-5.626.889-10.463 1.175-10.75.287-.286 1.609 1.136 2.939 3.162 2.655 4.046 4.212 4.738 4.721 2.097.37-1.921-7.161-19.343-9.494-21.964-2.243-2.518-3.985-1.205-4.629 3.491-.317 2.306-1.907 9.817-3.533 16.692-1.627 6.875-3.255 14.233-3.618 16.352-.362 2.119-.869 3.642-1.127 3.385-.257-.257-1.359-3.566-2.45-7.352-1.724-5.986-1.824-7.512-.766-11.685 1.497-5.907-.359-12.617-3.923-14.181-1.51-.663-2.887-2.907-4.238-6.908-2.847-8.429-6.186-11.61-8.779-8.361m-1.196 8c-4.069 9.005-8.109 22.413-7.376 24.478 1.706 4.805 6.906 7.436 5.773 2.921-1.373-5.471 4.567-26.175 6.497-22.649.452.825 1.621 5.245 2.598 9.821 1.669 7.815 1.676 8.643.117 13.588-2.519 7.99-2.193 10.04 2.337 14.707l3.997 4.119-.627-4.868c-.979-7.605.985-4.278 4.713 7.984 2.615 8.601 3.831 11.18 5.86 12.436 1.408.871 3.376 2.513 4.373 3.649 1.809 2.06 1.811 2.059 1-.436-.447-1.375-.807-7.03-.799-12.566.012-8.16.371-10.61 1.899-12.942 1.428-2.179 2.067-5.723 2.634-14.615.997-15.612 1.83-16.944 5.853-9.359 3.586 6.759 3.675 4.66.134-3.168-5.268-11.646-6.423-12.693-7.325-6.638-1.051 7.061-8.785 39.764-9.596 40.575-.442.442-2.299-4.431-4.125-10.83-3.102-10.868-3.237-11.959-2.056-16.57 1.107-4.32 1.057-5.256-.408-7.49-.92-1.405-2.264-2.327-2.987-2.049-.905.347-1.846-1.422-3.016-5.672C192.687 91.02 190.576 87 188.914 87c-.572 0-2.31 2.813-3.863 6.25m-46.485 7.959c-2.07 2.956-.129 5.236 2.001 2.35 1.634-2.214 1.886-4.559.49-4.559-.519 0-1.64.994-2.491 2.209M70 156.417c-20.927 6.447-22.251 7.811-14.643 15.1 5.441 5.214 8.378 6.158 9.755 3.136 1.09-2.392 5.849-5.959 10.061-7.541 3.331-1.251 5.116.506 4.649 4.578-.262 2.285-1.303 3.277-5.568 5.31-7.211 3.436-7.124 5.739.496 13.168 3.162 3.082 6.725 6.101 7.916 6.709 1.306.665 2.841 3.133 3.862 6.206 1.369 4.124 2.541 5.639 6.116 7.906 2.433 1.543 5.594 3.976 7.026 5.408 4.154 4.154 9.535 2.977 7.198-1.575-.473-.922-.597-2.365-.275-3.205.755-1.966 10.06-6.617 13.237-6.617 4.398 0 10.119-2.265 13.928-5.514 8.761-7.473 13.781-8.269 17.922-2.838 3.472 4.552 8.224 6.719 11.772 5.37 3.169-1.204 3.191-2.753.129-8.767-1.33-2.613-2.793-6.101-3.251-7.751-.601-2.168-2.069-3.624-5.293-5.25-5.479-2.764-8.135-2.818-13.427-.276-2.261 1.086-9.96 4.031-17.11 6.544-7.15 2.513-15.256 5.674-18.014 7.025-6.239 3.057-8.316 3.105-8.904.207a664.427 664.427 0 00-1.062-5.096c-.679-3.188.825-5.654 3.447-5.654.948 0 2.521-.882 3.497-1.96 2.464-2.723 1.276-6.632-2.741-9.012-4.957-2.937-5.723-3.876-5.723-7.02 0-10.406-9.032-13.509-25-8.591m4 1.545c-3.575.98-9.425 2.897-13 4.261-5.463 2.083-6.5 2.855-6.5 4.838 0 1.555 1.129 3.12 3.31 4.59l3.309 2.23 3.716-3.716c2.282-2.282 5.778-4.382 9.055-5.441 8.929-2.883 9.11-2.781 9.11 5.145v6.87l-6 2.602c-3.3 1.431-6 3.071-6 3.644 0 1.146 10.045 10.964 11.25 10.995.412.011.75-1.105.75-2.48s.563-2.499 1.25-2.498c.737.001 2.019 3.264 3.126 7.958 2.222 9.421 3.448 11.399 8.739 14.099 2.19 1.117 4.22 2.651 4.511 3.409.291.757 1.205 1.637 2.031 1.954 1.212.465 1.373-.009.834-2.464-.42-1.911-.194-3.611.608-4.577 2.05-2.471 10.568-6.381 13.9-6.381 4.227 0 9.917-2.536 13.527-6.03 2.871-2.778 13.836-7.97 16.833-7.97.769 0 3.513 2.475 6.097 5.5 2.584 3.025 5.339 5.5 6.121 5.5 1.963 0 1.795-.88-1.051-5.5-1.355-2.2-2.478-5.033-2.495-6.295-.043-3.204-4.337-7.204-7.736-7.208-1.537-.001-4.595.865-6.795 1.925s-9.4 3.817-16 6.126c-6.6 2.31-14.721 5.487-18.047 7.06-3.326 1.573-7.479 3.147-9.229 3.497-3.751.75-4.593-.704-5.745-9.928-.767-6.141.277-8.677 3.572-8.677.993 0 2.512-.706 3.376-1.569 2.228-2.229.552-4.822-4.398-6.803-3.756-1.503-4.029-1.88-4.029-5.573 0-5.121-1.608-8.556-4.657-9.945-3.18-1.449-5.486-1.301-13.343.852" fill="#121212" fill-rule="evenodd"/></svg>